<?xml version="1.0" encoding="utf-8"?>
<!-- Generator: Adobe Illustrator 19.0.0, SVG Export Plug-In . SVG Version: 6.00 Build 0)  -->
<svg version="1.1" id="layer" xmlns="http://www.w3.org/2000/svg" xmlns:xlink="http://www.w3.org/1999/xlink" x="0px" y="0px"
	 viewBox="-153 -46 652 652" style="enable-background:new -153 -46 652 652;" xml:space="preserve">
<style type="text/css">
	.st0{fill:#FF5600;}
</style>
<path fill="white" id="diconium_logo-a" d="M-9.1,287.3c0,8,1.3,14,3.8,18.1c2.5,4,5.9,6,10.2,6c6.5,0,14.1-1.9,22.6-5.6v-40.9
	c-8.1-2.1-15.6-3.1-22.6-3.1c-5.5,0-9.4,2.5-11.4,7.5C-8.2,273.3-9.1,279.3-9.1,287.3z M-13.2,304c-0.9-2.8-1.6-5.6-1.9-8.3
	c-0.3-2.7-0.5-5.7-0.5-9c0-3.3,0.2-6.3,0.5-9.1c0.3-2.8,0.9-5.6,1.8-8.5c0.9-2.9,2.1-5.3,3.5-7.2c3.3-4.4,8.2-6.7,14.8-6.7
	c2.8,0,6.5,0.4,10.9,1.3c4.4,0.8,8.4,2,11.8,3.3v-32.9H34v90.3h-4.5l-2-6.8c-1.8,1.5-5.1,3.1-10,4.8c-4.9,1.8-9,2.6-12.4,2.6
	c-3.4,0-6.3-0.6-8.8-1.9c-2.5-1.3-4.4-2.9-5.9-4.9C-11.1,309.2-12.3,306.8-13.2,304z"/>
<path fill="white" id="diconium_logo-b" d="M55.6,258.9h6.2v63.1h-6.2V258.9z M54.7,248.5v-6.7c0-1.7,0.7-2.5,2.2-2.5h4c1.4,0,2.1,0.8,2.1,2.5
	v6.7c0,1.6-0.7,2.4-2.1,2.4h-4c-0.9,0-1.4-0.3-1.7-0.8C54.9,249.5,54.7,249,54.7,248.5z"/>
<path fill="white" id="diconium_logo-c" d="M83.7,286.9c0-5.2,0.3-9.7,1-13.4c0.7-3.7,1.6-6.8,2.6-9c1.1-2.3,2.5-4,4.3-5.3
	c1.8-1.3,3.6-2.2,5.4-2.6c1.8-0.4,4-0.6,6.6-0.6c6.5,0,14.8,1,24.8,3v4.6c-9.8-0.7-16.7-1-20.7-1s-6.5,0.1-7.4,0.2
	c-0.9,0.1-1.9,0.4-2.8,0.8c-1,0.4-1.8,1-2.5,1.7c-0.7,0.7-1.3,1.6-2,2.9c-0.6,1.2-1.2,2.7-1.5,4.5c-0.8,3.8-1.3,8.9-1.3,15.1
	c0,6.2,0.5,11.1,1.6,14.7c1.1,3.6,2.5,6,4.4,7.3c1.9,1.3,4.3,1.9,7.5,1.9c6.2,0,13.4-0.4,21.5-1.3l4.1-0.3v4.8
	c-7.4,2.1-15.9,3.2-25.6,3.3c-8,0-13.4-2.9-16.2-8.6C84.9,304.4,83.7,296.9,83.7,286.9z"/>
<path fill="white" id="diconium_logo-d" d="M150.6,270.7c-0.8,1.9-1.4,4.2-1.8,7c-0.4,2.8-0.5,5.8-0.5,9.1c0,3.3,0.1,6,0.3,8.1
	c0.2,2.1,0.5,4,1,5.6c0.5,1.6,1,3,1.6,4.1c0.6,1.1,1.3,2.1,2.3,2.9c0.9,0.8,1.9,1.5,2.8,2s2.1,0.9,3.5,1.1c2.3,0.5,5,0.7,7.9,0.7
	s5.2-0.1,6.9-0.3c1.7-0.2,3.3-0.6,5-1.1c1.6-0.6,3-1.4,4-2.5c1-1.1,1.9-2.5,2.7-4.2c1.6-3.2,2.3-7.6,2.3-13c0-5.5-0.2-9.6-0.5-12.3
	c-0.4-2.7-0.9-5-1.7-6.9c-0.8-1.9-1.7-3.4-2.6-4.5c-1-1.1-2.3-2-4-2.6c-1.7-0.6-3.4-1-5-1.2c-1.7-0.2-3.8-0.3-6.3-0.3
	c-2.5,0-4.6,0.1-6.2,0.2c-1.6,0.2-3.2,0.5-4.9,1.1c-1.7,0.6-3,1.4-4,2.5C152.3,267.4,151.4,268.9,150.6,270.7z M147.2,311
	c-2.1-2.5-3.5-5.6-4.3-9.2c-0.8-3.7-1.2-9-1.2-16s0.9-12.8,2.6-17.4c1.8-4.6,4.5-7.8,8.3-9.7c3.8-1.9,9.1-2.8,15.9-2.8
	c10.2,0,17.2,2.4,21.1,7.1c3.9,4.7,5.8,12.9,5.8,24.4c0,11.6-1.9,19.6-5.8,24c-3.9,4.4-10.9,6.6-21.1,6.6c-5.3,0-9.7-0.5-13.1-1.6
	C152,315.3,149.3,313.5,147.2,311z"/>
<path fill="white" id="diconium_logo-e" d="M221.9,260c1.9-1,4.4-1.9,7.4-2.8c3-0.9,6.2-1.3,9.7-1.3c3.5,0,6.7,0.9,9.7,2.8
	c5.9,3.7,8.8,9.3,8.8,16.8v42.5h-6.7v-42.5c0-4-1.2-7.1-3.5-9.5c-2.3-2.3-5.2-3.5-8.6-3.5c-3.4,0-6.5,0.3-9.1,0.9
	c-2.7,0.6-5,1.3-6.9,2.1c-2,0.8-4.7,2-8.2,3.7v48.9h-6.7v-61h4.6l2.1,7.1C217.5,262.3,219.9,260.9,221.9,260z"/>
<path fill="white" id="diconium_logo-f" d="M279,258.9h6.2v63.1H279V258.9z M278.2,248.5v-6.7c0-1.7,0.7-2.5,2.2-2.5h4c1.4,0,2.1,0.8,2.1,2.5v6.7
	c0,1.6-0.7,2.4-2.1,2.4h-4c-0.9,0-1.5-0.3-1.7-0.8C278.3,249.5,278.2,249,278.2,248.5z"/>
<path fill="white"  id="diconium_logo-g" d="M313.8,255.9v42.5c0,4,1.2,7.1,3.5,9.5c2.3,2.3,5.3,3.5,9.1,3.5c4.7,0,8.4-0.5,11.1-1.4
	c3.7-1.3,8-3.1,12.6-5.4v-48.7h6.7v61h-4.6l-2.1-7.1c-3,1.7-5.4,3-7.4,4c-5.4,2.8-10.9,4.1-16.7,4.1c-5.7,0-10.3-1.9-13.8-5.7
	c-3.4-3.8-5.2-8.4-5.2-13.8v-42.5H313.8z"/>
<path fill="white" id="diconium_logo-h" d="M391.2,259.9c1.8-0.9,4.1-1.8,7.1-2.7c2.9-0.9,6.1-1.3,9.4-1.3c3.4,0,6.5,0.8,9.6,2.5
	c3,1.7,5.2,3.9,6.6,6.6c3.2-2.6,7.2-4.8,11.8-6.5c4.6-1.7,9.4-2.6,14.5-2.6c5.1,0,9.4,1.9,13,5.6c3.6,3.7,5.3,8.4,5.3,14.1v42.3
	h-6.6v-42.3c0-3.8-1.1-7-3.4-9.5c-2.3-2.5-5.1-3.7-8.5-3.7c-3.4,0-6.4,0.3-9.1,0.8c-4.9,0.9-10,3-15.3,6.2c0.4,1,0.6,3,0.6,5.9v42.6
	h-6.6v-42.3c0-3.8-1.2-7-3.5-9.5c-2.3-2.5-5.2-3.7-8.5-3.7c-3.4,0-6.3,0.3-8.9,0.9c-2.6,0.6-4.8,1.3-6.6,2c-1.9,0.8-4.5,2-8,3.8
	v48.8h-6.6v-61.3h4.5l2.1,7.3C387.1,262.2,389.5,260.8,391.2,259.9z"/>
<path fill="white" id="diconium_logo-j" class="st0" d="M-67.4,233.9l-26.9,82.6c1.5,0.9,3.2,1.5,5.1,1.5c4.4,0,8.1-2.9,9.4-7l26.9-82.6
	c-1.5-0.9-3.2-1.5-5.1-1.5C-62.4,226.9-66.1,229.8-67.4,233.9z"/>
<path fill="white" id="diconium_logo-i" class="st0" d="M-95.2,226.9c-4.4,0-8.1,2.9-9.4,7l-26.9,82.6c1.5,0.9,3.2,1.5,5.1,1.5
	c4.4,0,8.1-2.9,9.4-7l26.9-82.6C-91.6,227.5-93.4,226.9-95.2,226.9z"/>
</svg>
